<svg id="Layer_1" data-name="Layer 1" xmlns="http://www.w3.org/2000/svg" viewBox="0 0 72 72.06"><defs><style>.cls-1{fill:#0077b5;}</style></defs><title>linkedin_square</title><path class="cls-1" d="M385,259.64V331.7h72V259.64Zm25.12,53.56h-8.21V286.68h8.21Zm-4.14-30a4.89,4.89,0,1,1,4.85-4.89A4.87,4.87,0,0,1,406,283.21Zm34.9,30h-8.17V299.28c0-3.82-1.45-5.95-4.47-5.95-3.29,0-5,2.22-5,5.95V313.2h-7.87V286.68h7.87v3.57a9.25,9.25,0,0,1,8-4.38c5.62,0,9.65,3.43,9.65,10.54Z" transform="translate(-385 -259.64)"/></svg>